<svg width="160" height="160" viewBox="0 0 160 160" fill="none" xmlns="http://www.w3.org/2000/svg">
<path d="M35.7495 119.903C35.6553 119.903 35.5651 119.866 35.4985 119.799C35.4319 119.733 35.3945 119.643 35.3945 119.548V113.585C35.3945 113.491 35.4319 113.401 35.4985 113.334C35.5651 113.268 35.6553 113.23 35.7495 113.23C35.8436 113.23 35.9339 113.268 36.0005 113.334C36.067 113.401 36.1044 113.491 36.1044 113.585V119.548C36.1044 119.643 36.067 119.733 36.0005 119.799C35.9339 119.866 35.8436 119.903 35.7495 119.903Z" fill="#212529"/>
<path d="M51.3318 68.9694C43.0971 71.8977 41.3579 56.2625 48.9714 58.8003C56.5849 61.3382 53.3549 47.6729 53.3549 47.6729C44.6943 18.0886 71.2972 12.445 71.2972 12.445C71.2972 12.445 74.119 10.7058 78.0233 16.1009C78.0233 16.1009 86.3112 12.5337 92.079 23.182C97.8468 33.8302 91.2094 50.3705 94.2264 55.2154C97.4919 60.4153 100.615 54.7717 102.55 59.5102C104.183 63.5033 96.2141 68.0288 94.2264 68.0821L51.3318 68.9694Z" fill="#212529"/>
<path d="M49.326 69.6965C47.2496 69.6965 45.9541 68.4542 45.2797 67.5669C43.505 65.2065 43.221 61.5329 44.6586 59.5452C45.6169 58.2142 47.1786 57.8237 49.0776 58.4626C50.4974 58.924 51.5977 58.8353 52.343 58.1432C54.8276 55.8715 53.0707 48.0628 52.9997 47.7611C50.2489 38.302 50.7636 30.2803 54.5614 23.9268C59.9743 14.8758 70.3386 12.3025 71.1727 12.1073C71.6164 11.8766 74.4381 10.6875 78.1473 15.6744C79.6927 15.1738 81.3347 15.0461 82.939 15.3018C85.5833 15.7099 89.3457 17.3782 92.3982 23.004C95.8056 29.3042 94.936 37.6453 94.2439 44.336C93.747 49.0389 93.3388 53.103 94.5278 55.0197C96.0896 57.522 97.5626 57.3446 98.9646 57.1671C100.367 56.9896 101.84 56.8299 102.887 59.3855C103.348 60.5213 103.153 61.7636 102.301 63.0769C100.438 65.9341 95.8234 68.401 94.2439 68.4365L51.4024 69.3238C50.7363 69.5642 50.0342 69.6902 49.326 69.6965ZM47.4094 58.8708C46.9864 58.8534 46.5658 58.9435 46.1872 59.1329C45.8085 59.3222 45.4841 59.6045 45.2442 59.9534C44.0019 61.6926 44.2859 65.0468 45.8476 67.1409C46.6107 68.1348 48.3145 69.6788 51.225 68.6317H51.3315L94.2261 67.7443C95.4684 67.7088 99.8874 65.5082 101.698 62.7219C102.425 61.6038 102.603 60.5923 102.23 59.6694C101.396 57.6285 100.402 57.735 99.0533 57.8947C97.7046 58.0544 95.7169 58.2852 93.9244 55.4101C92.5934 53.2982 93.0371 49.1277 93.534 44.2827C94.2261 37.6808 95.078 29.4639 91.777 23.3589C89.4699 19.1174 86.3819 16.5795 82.8325 16.0116C80.1705 15.6035 78.1828 16.4376 78.165 16.4553L77.8988 16.5618L77.7391 16.3311C74.0655 11.2554 71.5099 12.7462 71.4921 12.7639L71.4389 12.7994H71.3856C71.2792 12.8349 60.6132 15.1953 55.1648 24.3173C51.4734 30.4932 50.9765 38.3374 53.6918 47.6014C53.7806 47.9386 55.6617 56.0845 52.8222 58.6756C51.8816 59.5452 50.5328 59.6872 48.8469 59.137C48.3858 58.9691 47.9 58.8791 47.4094 58.8708Z" fill="#212529"/>
<path d="M88.3164 32.6768H88.2099C78.5023 29.9083 71.5099 21.5671 71.4389 21.4784C71.3777 21.4055 71.348 21.3112 71.3564 21.2163C71.3647 21.1215 71.4103 21.0338 71.4833 20.9726C71.5562 20.9114 71.6505 20.8817 71.7454 20.89C71.8402 20.8984 71.9279 20.944 71.9891 21.017C72.0601 21.1057 78.9104 29.2871 88.4051 31.9847C88.4509 31.9969 88.4938 32.0183 88.5312 32.0473C88.5686 32.0764 88.5998 32.1127 88.623 32.1541C88.6461 32.1954 88.6607 32.241 88.666 32.2881C88.6713 32.3352 88.667 32.3829 88.6536 32.4283C88.6336 32.5017 88.5894 32.5662 88.5282 32.6113C88.467 32.6564 88.3924 32.6795 88.3164 32.6768Z" fill="#212529"/>
<path d="M84.3061 43.643H84.2174C84.1707 43.6386 84.1253 43.6249 84.0839 43.6028C84.0425 43.5808 84.0059 43.5507 83.9762 43.5144C83.9465 43.4781 83.9243 43.4363 83.9109 43.3913C83.8974 43.3464 83.893 43.2992 83.8979 43.2526C83.9001 43.2066 83.9116 43.1616 83.9318 43.1203C83.952 43.079 83.9804 43.0423 84.0153 43.0124C84.0502 42.9825 84.0909 42.96 84.1348 42.9464C84.1787 42.9327 84.2249 42.9282 84.2706 42.9331C84.3949 42.9331 87.3586 43.1106 87.891 38.2656C88.1927 35.6036 87.4474 34.805 86.7375 34.0418C86.0276 33.2787 85.3532 32.5688 85.5484 30.5634C85.5578 30.4693 85.6042 30.3827 85.6775 30.3228C85.7507 30.2629 85.8447 30.2345 85.9389 30.244C86.033 30.2534 86.1195 30.2998 86.1794 30.373C86.2393 30.4462 86.2677 30.5403 86.2583 30.6344C86.0986 32.3204 86.631 32.8883 87.2521 33.5627C87.8733 34.2371 88.9204 35.3551 88.6009 38.3544C88.033 43.3945 84.8918 43.643 84.3061 43.643Z" fill="#212529"/>
<path d="M80.0463 33.1208H79.9931L75.9645 32.7658C75.8452 32.7524 75.7358 32.693 75.6596 32.6002C75.5833 32.5074 75.5463 32.3886 75.5563 32.2689C75.5606 32.2113 75.5767 32.1551 75.6034 32.1038C75.6302 32.0525 75.6671 32.0073 75.712 31.9707C75.7568 31.9342 75.8086 31.9072 75.8642 31.8913C75.9198 31.8755 75.9781 31.8711 76.0355 31.8785L80.0818 32.2334C80.1401 32.2379 80.197 32.2539 80.2491 32.2804C80.3013 32.307 80.3476 32.3436 80.3856 32.3881C80.4235 32.4326 80.4523 32.4842 80.4702 32.5399C80.4881 32.5956 80.4948 32.6543 80.49 32.7126C80.4739 32.8212 80.4211 32.9209 80.3404 32.9952C80.2596 33.0695 80.1558 33.1138 80.0463 33.1208Z" fill="#212529"/>
<path d="M95.9476 119.548C94.9005 117.72 94.3148 116.975 94.5456 114.881C94.8828 111.668 95.3974 106.539 95.6459 101.712C98.0772 106.539 103.898 114.756 113.712 109.61C115.718 108.563 113.482 76.4936 86.4706 65.8809L83.5069 70.0869C83.0312 70.8346 82.4715 71.5253 81.8386 72.1456C70.587 82.7938 61.607 65.8809 61.607 65.8809C34.0458 74.1332 36.4949 97.0802 33.9748 109.61C32.6615 116.158 40.8962 113.443 48.8291 112.875C52.2543 112.644 52.8754 107.267 52.9287 103.043C52.9263 102.982 52.9484 102.922 52.99 102.877C53.0316 102.833 53.0893 102.806 53.1505 102.804C53.2117 102.801 53.2713 102.823 53.3163 102.865C53.3612 102.907 53.3877 102.964 53.3901 103.025L54.3307 112.502C54.6005 115.271 54.0967 118.06 52.8754 120.56" fill="#ADB5BD"/>
<path d="M61.6069 65.8806C61.6069 65.8806 66.7891 68.4007 69.2737 53.4932L77.0646 52.9785C77.0646 52.9785 77.5438 67.3714 86.4706 65.8806C86.4706 65.8806 75.2189 88.5259 61.6069 65.8806Z" fill="#F8F9FA"/>
<path d="M92.6111 31.8249C92.5228 31.8254 92.4375 31.7929 92.3719 31.7338C92.3062 31.6748 92.265 31.5934 92.2562 31.5055C91.1558 20.875 82.2823 18.1597 82.1936 18.142C82.1043 18.1134 82.03 18.0508 81.9868 17.9676C81.9436 17.8845 81.935 17.7877 81.9629 17.6983C81.9731 17.6532 81.9925 17.6106 82.0198 17.5734C82.0471 17.5361 82.0819 17.5048 82.1218 17.4815C82.1618 17.4582 82.2061 17.4433 82.252 17.4379C82.2979 17.4324 82.3445 17.4365 82.3888 17.4498C82.4953 17.4853 84.7846 18.1774 87.2515 20.2361C89.7183 22.2948 92.3626 25.6312 92.966 31.4345C92.9709 31.4812 92.9665 31.5283 92.9531 31.5733C92.9397 31.6182 92.9174 31.66 92.8877 31.6964C92.858 31.7327 92.8214 31.7627 92.78 31.7848C92.7386 31.8069 92.6933 31.8205 92.6466 31.8249H92.6111Z" fill="#F8F9FA"/>
<path d="M92.7529 39.563C92.6588 39.563 92.5685 39.5256 92.5019 39.459C92.4353 39.3925 92.3979 39.3022 92.3979 39.208V34.3276C92.3979 34.2335 92.4353 34.1432 92.5019 34.0766C92.5685 34.0101 92.6588 33.9727 92.7529 33.9727C92.847 33.9727 92.9373 34.0101 93.0039 34.0766C93.0704 34.1432 93.1078 34.2335 93.1078 34.3276V39.208C93.1078 39.3022 93.0704 39.3925 93.0039 39.459C92.9373 39.5256 92.847 39.563 92.7529 39.563Z" fill="#F8F9FA"/>
<path d="M55.2 29.8712H55.1112C55.0213 29.8425 54.9457 29.7807 54.8996 29.6983C54.8535 29.616 54.8403 29.5192 54.8628 29.4275C56.602 23.4468 61.021 20.1991 61.1985 20.0571C61.2368 20.03 61.2802 20.0108 61.326 20.0007C61.3718 19.9905 61.4192 19.9895 61.4654 19.9977C61.5117 20.006 61.5558 20.0233 61.5953 20.0487C61.6347 20.0742 61.6688 20.1072 61.6954 20.1458C61.7233 20.1831 61.7437 20.2255 61.7553 20.2707C61.7668 20.3158 61.7694 20.3628 61.7628 20.409C61.7562 20.4551 61.7406 20.4995 61.7169 20.5396C61.6931 20.5797 61.6617 20.6148 61.6244 20.6427C61.5712 20.6605 57.2054 23.8904 55.5372 29.6228C55.5203 29.6978 55.4769 29.7643 55.415 29.81C55.353 29.8556 55.2767 29.8774 55.2 29.8712Z" fill="#F8F9FA"/>
<path d="M54.384 35.7461C54.3018 35.7445 54.2224 35.7158 54.1582 35.6645C54.094 35.6131 54.0486 35.542 54.029 35.4621C53.7983 34.4757 53.7983 33.4493 54.029 32.4628C54.0395 32.4174 54.0588 32.3744 54.0859 32.3364C54.1129 32.2985 54.1472 32.2662 54.1868 32.2415C54.2264 32.2167 54.2704 32.2 54.3164 32.1924C54.3624 32.1847 54.4095 32.1861 54.4549 32.1966C54.5016 32.2047 54.5461 32.2226 54.5854 32.2491C54.6247 32.2755 54.6581 32.31 54.6832 32.3501C54.7083 32.3903 54.7247 32.4354 54.7312 32.4823C54.7377 32.5293 54.7343 32.577 54.7211 32.6226C54.5262 33.5052 54.5262 34.4197 54.7211 35.3024C54.7343 35.3479 54.7377 35.3957 54.7312 35.4426C54.7247 35.4896 54.7083 35.5346 54.6832 35.5748C54.6581 35.615 54.6247 35.6494 54.5854 35.6759C54.5461 35.7023 54.5016 35.7202 54.4549 35.7283L54.384 35.7461Z" fill="#F8F9FA"/>
<path d="M123.811 86.2539C128.815 120.772 115.15 123.079 106.614 116.459C102.443 113.229 99.5682 108.296 98.8229 106.503C98.7889 106.428 98.7712 106.347 98.771 106.264C98.7708 106.182 98.788 106.1 98.8215 106.025C98.855 105.949 98.904 105.882 98.9655 105.827C99.0269 105.771 99.0992 105.73 99.1778 105.705C100.917 105.119 105.975 103.238 107.874 100.594" fill="#F8F9FA"/>
<path d="M114.245 119.778C111.707 119.778 108.974 118.749 106.383 116.743C101.964 113.301 99.1241 108.172 98.4852 106.645C98.3931 106.398 98.3994 106.125 98.5029 105.882C98.556 105.764 98.6319 105.658 98.7263 105.57C98.8208 105.481 98.9318 105.413 99.0531 105.368C100.597 104.853 105.726 102.972 107.572 100.381C107.628 100.305 107.712 100.256 107.805 100.242C107.899 100.229 107.993 100.253 108.069 100.31C108.107 100.336 108.14 100.37 108.166 100.41C108.191 100.449 108.208 100.493 108.217 100.54C108.225 100.586 108.224 100.633 108.214 100.679C108.204 100.725 108.184 100.768 108.157 100.807C106.241 103.486 101.307 105.368 99.2838 106.042C99.2238 106.075 99.1745 106.124 99.1418 106.184C99.124 106.242 99.124 106.304 99.1418 106.361C99.9227 108.225 102.833 113.088 106.826 116.176C110.819 119.264 114.972 119.885 118.184 118.021C121.397 116.158 126.792 109.272 123.455 86.2895C123.448 86.2438 123.45 86.1971 123.461 86.1522C123.472 86.1073 123.493 86.0653 123.521 86.0287C123.55 85.992 123.585 85.9616 123.626 85.9393C123.666 85.917 123.711 85.9033 123.757 85.8991C123.804 85.8915 123.851 85.8934 123.897 85.9046C123.943 85.9157 123.987 85.9359 124.025 85.964C124.063 85.9921 124.095 86.0276 124.119 86.0682C124.143 86.1089 124.159 86.1539 124.165 86.2008C125.514 95.5357 125.603 103.131 124.396 108.757C123.349 113.655 121.379 116.974 118.539 118.642C117.23 119.386 115.75 119.777 114.245 119.778Z" fill="#212529"/>
<path d="M137.547 119.424H22.4746V120.134H137.547V119.424Z" fill="#212529"/>
<path d="M123.171 87.372C123.171 87.372 128.904 75.1443 123.171 74.7539C123.171 74.7539 125.07 68.9328 119.906 69.6782C119.906 69.6782 119.853 61.4436 111.742 63.4845C111.742 63.4845 110.926 67.9922 106.862 65.3834C106.862 65.3834 103.241 59.8818 102.407 65.1172C102.248 66.0755 106.88 69.8557 107.696 71.3642C109.861 75.3927 111.37 83.095 110.855 91.1344C110.642 94.5773 110.358 98.9431 110.429 102.599L123.171 87.372Z" fill="#F8F9FA"/>
<path d="M112.896 63.0227C115.789 61.7627 114.334 68.8082 111.299 71.0976C111.141 71.2166 110.959 71.299 110.766 71.3389C110.572 71.3788 110.373 71.3752 110.181 71.3283C109.453 71.1331 108.246 69.7488 109.009 67.6192" fill="#F8F9FA"/>
<path d="M110.5 71.7199C110.363 71.7209 110.225 71.703 110.092 71.6666C109.613 71.5424 109.098 71.081 108.779 70.4776C108.459 69.8742 108.282 68.5786 108.672 67.5138C108.68 67.4618 108.699 67.412 108.727 67.3682C108.756 67.3243 108.795 67.2873 108.839 67.26C108.884 67.2327 108.935 67.2157 108.987 67.2103C109.039 67.2048 109.092 67.211 109.142 67.2284C109.191 67.2458 109.236 67.274 109.274 67.311C109.311 67.3479 109.34 67.3927 109.358 67.4421C109.375 67.4914 109.382 67.5442 109.377 67.5965C109.372 67.6488 109.356 67.6994 109.329 67.7445C108.939 68.8626 109.152 69.679 109.4 70.1581C109.649 70.6373 110.021 70.9213 110.27 70.9745C110.409 71.0097 110.555 71.0136 110.696 70.986C110.837 70.9583 110.97 70.8999 111.086 70.8148C113.358 69.0933 114.635 64.692 113.908 63.4675C113.837 63.361 113.677 63.0771 113.038 63.3433C112.957 63.3634 112.872 63.3544 112.797 63.3178C112.722 63.2812 112.662 63.2193 112.628 63.143C112.594 63.0667 112.588 62.9809 112.611 62.9007C112.634 62.8205 112.685 62.751 112.754 62.7044C113.855 62.2252 114.369 62.8286 114.529 63.1126C115.47 64.7275 113.979 69.5192 111.512 71.3827C111.221 71.6039 110.866 71.7225 110.5 71.7199Z" fill="#212529"/>
<path d="M117.049 66.3781C121.308 64.8341 117.688 74.595 113.748 75.6598C113.748 75.6598 111.76 75.8728 111.814 73.5656" fill="#F8F9FA"/>
<path d="M113.624 76.0139C113.078 76.0292 112.546 75.8392 112.133 75.4815C111.671 75.0556 111.441 74.3989 111.458 73.5648C111.458 73.4707 111.496 73.3804 111.562 73.3138C111.629 73.2473 111.719 73.2099 111.813 73.2099H111.831C111.924 73.2187 112.01 73.2619 112.072 73.3308C112.134 73.3998 112.169 73.4896 112.168 73.5826C112.151 74.2037 112.31 74.6651 112.612 74.9491C112.909 75.1984 113.29 75.3253 113.677 75.304C115.736 74.7184 117.83 71.4707 118.451 68.8796C118.699 67.8325 118.646 67.0161 118.309 66.7144C117.972 66.4127 117.528 66.5725 117.155 66.7144C117.066 66.745 116.968 66.7389 116.883 66.6973C116.798 66.6557 116.733 66.582 116.703 66.4926C116.672 66.4032 116.678 66.3053 116.72 66.2204C116.762 66.1355 116.835 66.0707 116.925 66.0401C117.723 65.7561 118.344 65.8093 118.788 66.182C119.232 66.5547 119.462 67.6728 119.143 69.0393C118.557 71.5239 116.392 75.304 113.837 75.9962H113.624V76.0139Z" fill="#212529"/>
<path d="M121.006 70.5492C125.034 69.7683 122.248 79.334 116.232 79.7777C116.232 79.7777 113.57 79.8664 113.871 77.4351" fill="#F8F9FA"/>
<path d="M116.215 80.1311C115.949 80.1311 114.742 80.0779 114.032 79.297C113.588 78.8178 113.428 78.179 113.517 77.3981C113.522 77.3514 113.535 77.306 113.557 77.2646C113.579 77.2232 113.61 77.1866 113.646 77.1569C113.682 77.1272 113.724 77.105 113.769 77.0916C113.814 77.0781 113.861 77.0737 113.908 77.0786C114.002 77.0958 114.086 77.1468 114.145 77.2221C114.204 77.2973 114.233 77.3915 114.227 77.4868C114.156 78.0547 114.263 78.4984 114.547 78.8178C115.114 79.439 116.215 79.4212 116.215 79.4212C119.072 79.2083 121.095 76.7947 121.965 74.7893C122.621 73.263 122.728 71.8255 122.231 71.1866C121.983 70.8849 121.592 70.7962 121.06 70.9027C120.968 70.9182 120.874 70.8972 120.798 70.8441C120.721 70.791 120.669 70.7101 120.652 70.6187C120.636 70.5249 120.656 70.4285 120.709 70.3493C120.762 70.2701 120.843 70.2141 120.935 70.1928C121.929 69.9976 122.497 70.388 122.781 70.7429C123.473 71.5948 123.402 73.263 122.621 75.0732C121.628 77.3626 119.427 79.9004 116.25 80.1311H116.215Z" fill="#212529"/>
<path d="M111.228 64.94L102.212 52.9785L98.5742 56.7409L108.761 67.3891C108.846 67.4727 108.951 67.533 109.066 67.5641C109.181 67.5952 109.302 67.5961 109.418 67.5666C109.897 67.4246 110.731 66.9987 111.317 65.5967C111.36 65.4888 111.374 65.3717 111.358 65.2567C111.343 65.1417 111.298 65.0326 111.228 64.94Z" fill="#F8F9FA"/>
<path d="M109.239 67.9387C109.102 67.9394 108.967 67.9114 108.842 67.8563C108.716 67.8013 108.604 67.7205 108.512 67.6192L98.0942 56.7403L102.247 52.4277L111.511 64.7265C111.619 64.8654 111.689 65.0302 111.714 65.2045C111.739 65.3788 111.718 65.5566 111.653 65.7203C110.996 67.2998 110.02 67.7612 109.506 67.9032C109.42 67.9323 109.33 67.9443 109.239 67.9387ZM99.0703 56.7403L109.026 67.1401C109.064 67.1756 109.109 67.202 109.158 67.2174C109.207 67.2328 109.259 67.2367 109.31 67.2288C109.719 67.1223 110.446 66.7496 110.996 65.4541C111.015 65.4036 111.02 65.349 111.011 65.296C111.002 65.2429 110.978 65.1933 110.943 65.1524L102.176 53.5103L99.0703 56.7403Z" fill="#212529"/>
<path d="M59.1404 35.0892C57.2415 36.3137 56.6381 37.0413 56.8865 39.2952C57.0463 40.6085 58.0756 42.8979 59.1404 43.6787C60.2052 44.4596 60.9861 44.4419 61.412 44.85C62.4236 45.8261 62.4769 46.8732 62.6011 47.938C62.9205 50.6001 65.3874 52.2683 67.6945 53.6526C71.3682 55.8532 76.4971 55.2498 79.5673 52.2683C81.3065 50.5823 82.815 48.5237 83.4539 46.1811C84.2348 43.2883 87.1453 41.0699 87.2163 40.9634C87.9972 39.5969 88.3521 38.5143 88.1746 36.9348C87.9439 34.8762 85.0334 33.1015 83.3652 31.8769C79.4963 29.0019 76.5325 25.9849 72.9121 22.4177C72.7783 22.2886 72.6182 22.1899 72.4428 22.1281C72.2673 22.0664 72.0807 22.0432 71.8955 22.06C71.7103 22.0768 71.5308 22.1334 71.3694 22.2257C71.208 22.3181 71.0683 22.4441 70.96 22.5952C68.3866 26.1269 68.1382 29.0019 61.412 32.9063" fill="#F8F9FA"/>
<path d="M72.539 55.2509H72.4325C66.7534 55.1976 63.9671 51.7547 62.6184 48.8797C61.7199 46.9042 61.1906 44.781 61.0566 42.6149C61.0542 42.5692 61.0611 42.5234 61.077 42.4804C61.0929 42.4375 61.1173 42.3982 61.1489 42.365C61.1804 42.3317 61.2184 42.3053 61.2605 42.2873C61.3026 42.2692 61.348 42.2599 61.3938 42.26H61.4116C61.4573 42.2576 61.5031 42.2645 61.5461 42.2804C61.589 42.2963 61.6283 42.3207 61.6615 42.3523C61.6948 42.3838 61.7212 42.4218 61.7392 42.4639C61.7573 42.506 61.7666 42.5514 61.7665 42.5972C61.908 44.6706 62.4189 46.702 63.275 48.5957C65.103 52.5001 68.1909 54.5055 72.4325 54.541H72.5567C77.0645 54.541 80.3477 52.1984 82.2999 47.5664C83.7729 44.0525 83.8794 40.4853 83.8971 40.4498C83.8867 40.3976 83.8881 40.3436 83.9014 40.292C83.9146 40.2405 83.9393 40.1925 83.9736 40.1517C84.0079 40.111 84.051 40.0785 84.0996 40.0566C84.1481 40.0348 84.201 40.0241 84.2543 40.0255C84.3075 40.0269 84.3598 40.0402 84.4072 40.0645C84.4546 40.0888 84.4959 40.1235 84.5281 40.166C84.5602 40.2084 84.5824 40.2576 84.593 40.3098C84.6036 40.362 84.6023 40.4159 84.5892 40.4675C84.4649 43.0029 83.9129 45.499 82.9565 47.8503C80.9156 52.6953 77.3129 55.2509 72.539 55.2509Z" fill="#212529"/>
<path d="M61.1814 44.8514C60.23 44.8477 59.3066 44.5295 58.5548 43.9463C57.4545 43.059 56.7801 41.6392 56.5672 39.7225C56.23 36.6878 57.1173 36.0134 57.9159 35.41C58.7146 34.8066 58.9808 34.5936 58.821 32.9432C58.8157 32.8499 58.8455 32.758 58.9047 32.6857C58.9638 32.6134 59.048 32.5659 59.1405 32.5527C59.1871 32.5478 59.2343 32.5522 59.2793 32.5657C59.3242 32.5791 59.366 32.6013 59.4023 32.631C59.4386 32.6607 59.4687 32.6973 59.4908 32.7387C59.5128 32.7801 59.5265 32.8255 59.5309 32.8722C59.7261 34.9131 58.9808 35.481 58.3419 35.9779C57.703 36.4748 56.9931 37.0072 57.277 39.6338C57.8095 44.4788 61.2346 44.1593 61.3766 44.1416C61.4223 44.1341 61.469 44.136 61.5139 44.1474C61.5588 44.1587 61.6008 44.1792 61.6375 44.2075C61.6741 44.2358 61.7045 44.2713 61.7268 44.3119C61.7491 44.3525 61.7628 44.3972 61.7671 44.4433C61.772 44.4899 61.7676 44.5371 61.7541 44.582C61.7407 44.627 61.7185 44.6688 61.6888 44.7051C61.6591 44.7414 61.6225 44.7715 61.5811 44.7935C61.5397 44.8156 61.4943 44.8293 61.4476 44.8337L61.1814 44.8514Z" fill="#212529"/>
<path d="M66.3458 39.4191C66.7771 39.4191 67.1267 38.8868 67.1267 38.2301C67.1267 37.5734 66.7771 37.041 66.3458 37.041C65.9145 37.041 65.5649 37.5734 65.5649 38.2301C65.5649 38.8868 65.9145 39.4191 66.3458 39.4191Z" fill="#212529"/>
<path d="M64.3755 35.8344C64.278 35.8304 64.1842 35.7957 64.1077 35.7351C64.0311 35.6745 63.9758 35.5912 63.9496 35.4972C63.9336 35.4401 63.9292 35.3803 63.9366 35.3215C63.9441 35.2627 63.9633 35.2059 63.9931 35.1546C64.0229 35.1033 64.0626 35.0585 64.11 35.0229C64.1574 34.9872 64.2115 34.9614 64.269 34.947L68.1911 33.9177C68.2459 33.9016 68.3033 33.8967 68.36 33.9032C68.4168 33.9097 68.4716 33.9276 68.5212 33.9558C68.5709 33.9839 68.6144 34.0217 68.6492 34.067C68.6839 34.1123 68.7092 34.1641 68.7235 34.2194C68.7565 34.3323 68.7432 34.4538 68.6866 34.5569C68.63 34.6601 68.5348 34.7366 68.4218 34.7695L64.4997 35.8166L64.3755 35.8344Z" fill="#212529"/>
<path d="M70.7824 44.8513H70.7647C69.9838 44.7803 69.4869 44.5141 69.3094 44.0349C68.919 43.0234 70.25 41.5858 70.534 41.3196C70.598 41.2522 70.6859 41.2125 70.7788 41.2092C70.8717 41.2059 70.9622 41.2392 71.0309 41.3019C71.0971 41.3712 71.134 41.4634 71.134 41.5592C71.134 41.6551 71.0971 41.7472 71.0309 41.8166C70.5162 42.349 69.8063 43.3606 69.9838 43.7865C70.1613 44.2124 70.534 44.1237 70.8002 44.1414C70.8476 44.1412 70.8946 44.1509 70.938 44.17C70.9814 44.1891 71.0203 44.2172 71.0521 44.2524C71.0839 44.2876 71.108 44.3291 71.1226 44.3742C71.1373 44.4193 71.1424 44.4669 71.1374 44.5141C71.1289 44.6037 71.0883 44.6872 71.023 44.7492C70.9578 44.8111 70.8723 44.8474 70.7824 44.8513Z" fill="#212529"/>
<path d="M91.99 58.6577C102.174 58.6577 110.429 50.4022 110.429 40.2185C110.429 30.0348 102.174 21.7793 91.99 21.7793C81.8063 21.7793 73.5508 30.0348 73.5508 40.2185C73.5508 50.4022 81.8063 58.6577 91.99 58.6577Z" fill="#F8F9FA"/>
<path d="M91.9899 59.0299C81.6257 59.0299 73.1958 50.5823 73.1958 40.218C73.1958 35.2335 75.1759 30.4531 78.7005 26.9285C82.2251 23.4039 87.0054 21.4238 91.9899 21.4238C96.9745 21.4238 101.755 23.4039 105.279 26.9285C108.804 30.4531 110.784 35.2335 110.784 40.218C110.784 50.5823 102.354 59.0299 91.9899 59.0299ZM91.9899 22.1337C87.1951 22.1384 82.5981 24.0452 79.2076 27.4357C75.8172 30.8261 73.9104 35.4232 73.9057 40.218C73.9057 50.1918 82.0161 58.32 91.9899 58.32C101.964 58.32 110.074 50.1918 110.074 40.218C110.07 35.4232 108.163 30.8261 104.772 27.4357C101.382 24.0452 96.7847 22.1384 91.9899 22.1337Z" fill="#212529"/>
<path d="M91.9902 55.4814C100.233 55.4814 106.916 48.7992 106.916 40.5561C106.916 32.3131 100.233 25.6309 91.9902 25.6309C83.7472 25.6309 77.0649 32.3131 77.0649 40.5561C77.0649 48.7992 83.7472 55.4814 91.9902 55.4814Z" fill="#F8F9FA"/>
<path d="M91.9897 55.8358C88.9676 55.8358 86.0133 54.9397 83.5005 53.2607C80.9876 51.5817 79.0291 49.1952 77.8726 46.4031C76.7161 43.611 76.4135 40.5387 77.0031 37.5746C77.5927 34.6105 79.048 31.8878 81.185 29.7509C83.3219 27.6139 86.0446 26.1586 89.0087 25.569C91.9728 24.9794 95.0451 25.282 97.8372 26.4385C100.629 27.5951 103.016 29.5536 104.695 32.0664C106.374 34.5792 107.27 37.5335 107.27 40.5556C107.265 44.6068 105.654 48.4906 102.789 51.3552C99.9247 54.2198 96.0408 55.8312 91.9897 55.8358ZM91.9897 25.9853C89.108 25.9853 86.2909 26.8398 83.8949 28.4408C81.4988 30.0418 79.6313 32.3174 78.5285 34.9798C77.4257 37.6422 77.1371 40.5718 77.6993 43.3982C78.2615 46.2245 79.6492 48.8207 81.6869 50.8584C83.7246 52.8961 86.3208 54.2838 89.1472 54.846C91.9735 55.4082 94.9032 55.1197 97.5655 54.0169C100.228 52.9141 102.503 51.0466 104.105 48.6505C105.706 46.2544 106.56 43.4374 106.56 40.5556C106.555 36.6928 105.019 32.9895 102.287 30.258C99.5559 27.5266 95.8526 25.99 91.9897 25.9853Z" fill="#212529"/>
<path d="M80.5248 39.4561C81.3971 39.4561 82.1043 38.3755 82.1043 37.0425C82.1043 35.7095 81.3971 34.6289 80.5248 34.6289C79.6525 34.6289 78.9453 35.7095 78.9453 37.0425C78.9453 38.3755 79.6525 39.4561 80.5248 39.4561Z" fill="#212529"/>
<path d="M85.1392 53.8313C85.1392 53.8313 95.4325 41.9408 88.6353 26.0039L85.1392 53.8313Z" fill="#F8F9FA"/>
<path d="M85.1393 54.1854C85.0545 54.1829 84.9731 54.1516 84.9086 54.0966C84.8386 54.0351 84.7956 53.9484 84.789 53.8555C84.7823 53.7625 84.8125 53.6706 84.8731 53.5997C84.8908 53.5642 87.4286 50.6005 89.1146 45.7378C90.6586 41.2833 91.7767 34.2554 88.316 26.145C88.2798 26.0601 88.2781 25.9645 88.3112 25.8783C88.3443 25.7922 88.4097 25.7223 88.4935 25.6836C88.5364 25.6629 88.5831 25.6511 88.6308 25.6488C88.6784 25.6466 88.726 25.654 88.7707 25.6705C88.8155 25.6871 88.8564 25.7125 88.8911 25.7452C88.9258 25.778 88.9535 25.8174 88.9726 25.8611C92.522 34.2022 91.3685 41.4252 89.7713 46.004C88.0498 50.9732 85.512 53.9369 85.4055 54.0612C85.3718 54.0988 85.3309 54.1292 85.2851 54.1506C85.2394 54.172 85.1897 54.1838 85.1393 54.1854Z" fill="#212529"/>
<path d="M48.8286 112.875C48.8286 112.875 49.0948 118.288 48.8286 119.779V112.875Z" fill="#F8F9FA"/>
<path d="M48.8295 120.133H48.7763C48.6835 120.111 48.6024 120.055 48.5496 119.976C48.4968 119.897 48.4763 119.801 48.4923 119.707C48.7408 118.269 48.4923 112.945 48.4746 112.892C48.4722 112.846 48.4791 112.8 48.495 112.757C48.5108 112.715 48.5353 112.675 48.5668 112.642C48.5984 112.609 48.6364 112.582 48.6785 112.564C48.7206 112.546 48.766 112.537 48.8118 112.537C48.859 112.532 48.9066 112.537 48.9517 112.552C48.9968 112.566 49.0383 112.59 49.0735 112.622C49.1087 112.654 49.1367 112.693 49.1559 112.736C49.175 112.78 49.1847 112.827 49.1845 112.874C49.2022 113.087 49.4507 118.323 49.1845 119.831C49.1716 119.916 49.1286 119.993 49.0634 120.048C48.9982 120.104 48.9151 120.134 48.8295 120.133Z" fill="#212529"/>
<path d="M69.5223 51.4531C68.8301 51.4531 68.2622 50.7609 68.2622 49.9268C68.2622 49.0927 68.8301 48.3828 69.5223 48.3828C70.2144 48.3828 70.7823 49.0749 70.7823 49.9268C70.7823 50.7787 70.2144 51.4531 69.5223 51.4531ZM69.5223 49.0927C69.2205 49.0927 68.9721 49.4831 68.9721 49.9268C68.9721 50.3705 69.2205 50.7432 69.5223 50.7432C69.824 50.7432 70.0724 50.3705 70.0724 49.9268C70.0724 49.4831 69.824 49.0927 69.5223 49.0927Z" fill="#212529"/>
<path d="M118.362 83.966C118.077 83.96 117.793 83.9363 117.51 83.895C115.966 83.6643 114.99 83.2384 114.6 82.635C114.522 82.5257 114.469 82.4009 114.445 82.2691C114.42 82.1373 114.425 82.0018 114.458 81.8719L115.132 82.0671C115.131 82.1095 115.138 82.1518 115.153 82.1914C115.169 82.231 115.192 82.2672 115.221 82.2978C115.399 82.5463 115.931 82.9722 117.599 83.2029L118.345 83.2561C121.486 83.2561 123.935 80.3989 124.538 78.7839C124.685 78.3908 124.715 77.9635 124.624 77.5539C124.532 77.1443 124.324 76.7701 124.024 76.4768C123.988 76.4464 123.959 76.409 123.939 76.3669C123.918 76.3248 123.907 76.2789 123.905 76.2322C123.904 76.1855 123.912 76.1389 123.929 76.0955C123.946 76.052 123.973 76.0127 124.006 75.9799C124.067 75.9099 124.154 75.8669 124.247 75.8603C124.34 75.8536 124.432 75.8838 124.503 75.9444C124.556 75.9976 125.887 77.2221 125.195 79.0323C124.503 80.8425 121.876 83.966 118.362 83.966Z" fill="#212529"/>
<path d="M123.42 86.6622C123.279 86.6686 123.138 86.638 123.012 86.5735C122.97 86.5528 122.932 86.5238 122.901 86.4884C122.871 86.453 122.847 86.4119 122.832 86.3673C122.817 86.3227 122.811 86.2756 122.815 86.2288C122.818 86.1819 122.831 86.1362 122.852 86.0943C122.873 86.0519 122.902 86.0142 122.938 85.9837C122.974 85.9532 123.015 85.9305 123.061 85.9171C123.106 85.9038 123.153 85.9 123.2 85.906C123.246 85.9121 123.291 85.9279 123.332 85.9524C123.508 85.9692 123.686 85.9386 123.846 85.8636C124.645 85.5264 125.568 84.6923 125.656 84.4261C125.675 84.3757 125.68 84.3211 125.671 84.268C125.662 84.2149 125.638 84.1654 125.603 84.1244L123.474 81.0187C123.447 80.9817 123.428 80.9398 123.418 80.8953C123.408 80.8509 123.407 80.8049 123.416 80.7601C123.424 80.7154 123.441 80.6727 123.466 80.6348C123.492 80.5969 123.524 80.5645 123.562 80.5395C123.601 80.5124 123.644 80.4933 123.69 80.4831C123.736 80.4729 123.783 80.4719 123.829 80.4801C123.876 80.4884 123.92 80.5057 123.959 80.5312C123.999 80.5566 124.033 80.5896 124.059 80.6282L126.189 83.7162C126.281 83.8524 126.342 84.0076 126.367 84.1704C126.391 84.3332 126.379 84.4994 126.331 84.6568C126.136 85.207 125 86.1653 124.112 86.5203C123.893 86.613 123.658 86.6613 123.42 86.6622Z" fill="#212529"/>
<path d="M123.172 86.6102C123.117 86.6089 123.063 86.5955 123.014 86.571C122.965 86.5464 122.922 86.5113 122.888 86.4682L120.705 83.2915C120.678 83.253 120.659 83.2097 120.649 83.1639C120.639 83.1181 120.638 83.0708 120.646 83.0247C120.654 82.9785 120.672 82.9344 120.697 82.895C120.722 82.8555 120.755 82.8214 120.793 82.7946C120.832 82.7678 120.875 82.7488 120.921 82.7388C120.967 82.7287 121.014 82.7278 121.06 82.736C121.106 82.7443 121.151 82.7615 121.19 82.7868C121.229 82.8121 121.264 82.8449 121.29 82.8833L123.473 86.06C123.499 86.0995 123.518 86.1438 123.526 86.1903C123.535 86.2368 123.535 86.2846 123.525 86.3309C123.515 86.3772 123.496 86.4211 123.469 86.4599C123.441 86.4987 123.407 86.5317 123.367 86.557C123.308 86.5933 123.24 86.6118 123.172 86.6102Z" fill="#212529"/>
<path d="M92.0966 128.421C96.37 128.421 99.8343 124.996 99.8343 120.772C99.8343 116.548 96.37 113.123 92.0966 113.123C87.8232 113.123 84.3589 116.548 84.3589 120.772C84.3589 124.996 87.8232 128.421 92.0966 128.421Z" fill="#F8F9FA"/>
<path d="M92.1854 128.776H91.6175L88.3521 128.385L90.9786 128.066V127.977L91.2803 128.013C93.0415 127.791 94.6606 126.932 95.8313 125.598C97.002 124.264 97.6433 122.547 97.6338 120.772C97.6338 116.974 95.1492 114.01 91.5998 113.584L88.6892 113.247L91.5998 112.892L91.7417 112.839C91.878 112.789 92.0225 112.765 92.1677 112.768C93.2981 112.765 94.4163 113.002 95.4486 113.463C96.4809 113.924 97.4038 114.598 98.1566 115.442C98.9094 116.285 99.4751 117.278 99.8163 118.356C100.157 119.434 100.266 120.572 100.136 121.695C99.9024 123.642 98.9652 125.436 97.5009 126.74C96.0366 128.044 94.1462 128.768 92.1854 128.776ZM94.7587 113.957C96.9594 115.323 98.3436 117.808 98.3436 120.772C98.3462 122.191 97.9733 123.585 97.2626 124.813C96.5519 126.041 95.5288 127.059 94.2973 127.764C95.1809 127.486 96.0053 127.047 96.7287 126.469C97.4787 125.878 98.1036 125.144 98.5668 124.309C99.0299 123.474 99.3221 122.555 99.4262 121.606C99.5474 120.582 99.4486 119.544 99.1364 118.562C98.8242 117.58 98.3059 116.675 97.616 115.909C96.8295 115.044 95.8508 114.375 94.7587 113.957Z" fill="#212529"/>
<path d="M91.7239 128.742H91.2979C87.2694 128.742 84.0039 125.157 84.0039 120.773C84.0039 116.39 87.2161 112.77 91.1737 112.77C91.4644 112.77 91.7548 112.787 92.0433 112.823C95.6282 113.32 98.3435 116.727 98.3435 120.773C98.3435 124.82 95.6282 128.245 92.0433 128.724L91.7239 128.742ZM91.1737 113.479C87.6066 113.479 84.7138 116.763 84.7138 120.773C84.7138 124.784 87.6775 128.032 91.2979 128.032H91.5642C91.6886 128.043 91.814 128.037 91.9368 128.014C95.1846 127.588 97.6337 124.465 97.6337 120.773C97.6337 117.082 95.1846 113.976 91.9368 113.533C91.684 113.497 91.429 113.479 91.1737 113.479Z" fill="#212529"/>
<path d="M91.1732 126.647C88.2627 126.647 85.9023 124.02 85.9023 120.773C85.9023 117.525 88.2627 114.916 91.1732 114.916L91.8121 114.952C94.4387 115.306 96.4264 117.809 96.4264 120.773C96.4264 123.736 94.4387 126.239 91.8121 126.594C91.601 126.629 91.3873 126.647 91.1732 126.647ZM91.1732 115.626C88.6531 115.626 86.6122 117.933 86.6122 120.773C86.6122 123.612 88.6531 125.937 91.1732 125.937L91.7056 125.901C93.995 125.582 95.7165 123.381 95.7165 120.773C95.7165 118.164 93.995 115.963 91.7056 115.661C91.5298 115.632 91.3514 115.62 91.1732 115.626Z" fill="#212529"/>
<path d="M98.5923 117.171H96.9951C96.9009 117.171 96.8107 117.133 96.7441 117.067C96.6775 117 96.6401 116.91 96.6401 116.816C96.6401 116.722 96.6775 116.631 96.7441 116.565C96.8107 116.498 96.9009 116.461 96.9951 116.461H98.5923C98.6865 116.461 98.7767 116.498 98.8433 116.565C98.9099 116.631 98.9473 116.722 98.9473 116.816C98.9473 116.91 98.9099 117 98.8433 117.067C98.7767 117.133 98.6865 117.171 98.5923 117.171Z" fill="#212529"/>
<path d="M99.2135 118.979H97.705C97.6109 118.979 97.5206 118.942 97.4541 118.875C97.3875 118.809 97.3501 118.719 97.3501 118.624C97.3501 118.53 97.3875 118.44 97.4541 118.373C97.5206 118.307 97.6109 118.27 97.705 118.27H99.2135C99.3077 118.27 99.398 118.307 99.4645 118.373C99.5311 118.44 99.5685 118.53 99.5685 118.624C99.5685 118.719 99.5311 118.809 99.4645 118.875C99.398 118.942 99.3077 118.979 99.2135 118.979Z" fill="#212529"/>
<path d="M99.8167 121.429H97.9887C97.8946 121.429 97.8043 121.391 97.7378 121.325C97.6712 121.258 97.6338 121.168 97.6338 121.074C97.6338 120.98 97.6712 120.889 97.7378 120.823C97.8043 120.756 97.8946 120.719 97.9887 120.719H99.8167C99.9108 120.719 100.001 120.756 100.068 120.823C100.134 120.889 100.172 120.98 100.172 121.074C100.172 121.168 100.134 121.258 100.068 121.325C100.001 121.391 99.9108 121.429 99.8167 121.429Z" fill="#212529"/>
<path d="M99.1062 123.985H97.4912C97.397 123.985 97.3068 123.948 97.2402 123.881C97.1736 123.815 97.1362 123.724 97.1362 123.63C97.1362 123.536 97.1736 123.446 97.2402 123.379C97.3068 123.313 97.397 123.275 97.4912 123.275H99.1062C99.2003 123.275 99.2906 123.313 99.3571 123.379C99.4237 123.446 99.4611 123.536 99.4611 123.63C99.4611 123.724 99.4237 123.815 99.3571 123.881C99.2906 123.948 99.2003 123.985 99.1062 123.985Z" fill="#212529"/>
<path d="M97.4914 126.612H95.9296C95.8355 126.612 95.7452 126.575 95.6787 126.508C95.6121 126.442 95.5747 126.351 95.5747 126.257C95.5747 126.163 95.6121 126.073 95.6787 126.006C95.7452 125.94 95.8355 125.902 95.9296 125.902H97.4914C97.5855 125.902 97.6758 125.94 97.7424 126.006C97.8089 126.073 97.8463 126.163 97.8463 126.257C97.8463 126.351 97.8089 126.442 97.7424 126.508C97.6758 126.575 97.5855 126.612 97.4914 126.612Z" fill="#212529"/>
<path d="M91.7414 124.375C91.2024 124.384 90.6745 124.223 90.2329 123.914C89.381 123.275 88.9551 121.997 88.9551 120.134C88.9728 118.536 89.3455 117.614 90.0909 117.294C91.2444 116.797 92.7175 118.128 92.8772 118.27C92.9446 118.334 92.9843 118.422 92.9876 118.515C92.9909 118.608 92.9576 118.699 92.8949 118.767C92.8646 118.803 92.8272 118.832 92.7851 118.852C92.743 118.872 92.6971 118.884 92.6504 118.885C92.6036 118.887 92.5571 118.879 92.5136 118.862C92.4702 118.844 92.4308 118.818 92.398 118.785C92.0608 118.483 90.996 117.685 90.3748 117.951C89.7537 118.217 89.6827 118.909 89.665 120.134C89.665 121.766 89.9844 122.849 90.6588 123.328C91.3332 123.807 92.3803 123.63 93.0724 123.417C93.1166 123.4 93.1637 123.393 93.2107 123.396C93.2577 123.399 93.3036 123.412 93.3454 123.434C93.3872 123.456 93.424 123.486 93.4534 123.523C93.4828 123.559 93.5041 123.602 93.5161 123.648C93.5325 123.692 93.5395 123.739 93.5365 123.786C93.5336 123.833 93.5209 123.879 93.4992 123.921C93.4774 123.962 93.4472 123.999 93.4103 124.029C93.3735 124.058 93.3309 124.079 93.2854 124.091C92.7889 124.267 92.2678 124.363 91.7414 124.375Z" fill="#212529"/>
<path d="M63.4354 108.278C63.4354 108.278 47.0016 110.745 47.534 113.673C48.0665 116.601 49.22 118.518 47.6583 121.748C46.8774 123.363 45.1737 125.439 44.7123 127.8C44.2508 130.16 45.2624 132.946 47.534 134.827C52.095 138.607 51.9708 141.553 73.1431 134.827C73.1431 134.827 80.6678 132.911 77.4379 126.664C74.2079 120.417 72.7526 123.31 75.6632 114.897C75.6632 114.897 76.9942 111.419 72.8059 111.987C72.8059 111.987 69.4694 112.129 68.4756 110.549C67.4818 108.97 66.7719 106.574 63.4354 108.278Z" fill="#F8F9FA"/>
<path d="M53.0353 124.446C53.0353 124.446 55.8039 117.755 57.8803 117.169C59.9567 116.584 72.7878 112.892 73.6042 113.815C74.4205 114.738 73.2492 120.861 71.5278 121.216C69.8063 121.571 58.0045 125.262 58.8209 126.185C59.6372 127.108 71.865 123.878 73.0185 124.57C74.1721 125.262 77.2423 129.078 73.8704 133.106C70.4984 137.135 54.7745 139.992 53.3903 138.839C52.006 137.685 46.2205 131.261 46.6819 129.308C47.1433 127.356 46.0962 125.173 48.1904 126.132C50.2845 127.09 51.793 127.126 53.0353 124.446Z" fill="#212529"/>
<path d="M55.5733 139.389C53.4081 139.389 51.3672 139.052 50.2492 137.987C46.0076 133.976 42.6712 130.817 44.9783 125.99C47.1434 121.447 48.3325 119.335 48.3502 119.299C48.3722 119.259 48.4025 119.223 48.439 119.194C48.4756 119.165 48.5177 119.144 48.5627 119.133C48.6077 119.121 48.6546 119.119 48.7005 119.126C48.7464 119.133 48.7903 119.15 48.8294 119.175C48.9115 119.22 48.9724 119.296 48.999 119.386C49.0256 119.475 49.0157 119.572 48.9714 119.654C48.9536 119.672 47.7823 121.784 45.6172 126.292C43.452 130.8 46.5578 133.515 50.7461 137.472C52.1659 138.821 56.017 139.052 61.2878 138.076C68.5819 136.745 76.4438 133.533 77.4377 131.456C78.7865 128.705 76.852 126.15 75.2903 124.109C74.8617 123.57 74.4647 123.007 74.1012 122.423C73.4091 121.234 74.0657 119.087 74.7046 116.992C75.2725 115.182 75.9114 113.106 75.2015 112.609C73.8173 111.615 65.3697 113.496 61.3056 114.401L59.2292 114.845C55.6265 115.608 52.3433 121.784 52.3078 121.837C52.2927 121.887 52.2668 121.933 52.232 121.971C52.1973 122.01 52.1544 122.041 52.1065 122.061C52.0587 122.081 52.0069 122.091 51.955 122.089C51.903 122.087 51.8522 122.073 51.8059 122.05C51.7597 122.026 51.7193 121.992 51.6875 121.951C51.6557 121.91 51.6333 121.862 51.6219 121.812C51.6106 121.761 51.6105 121.708 51.6217 121.658C51.6328 121.607 51.655 121.559 51.6867 121.518C51.8287 121.252 55.1474 114.987 59.0872 114.153L61.1459 113.709C67.6413 112.254 74.1012 110.941 75.6097 112.023C76.7278 112.822 76.0712 114.951 75.379 117.205C74.8111 119.051 74.1722 121.145 74.7224 122.068C75.0661 122.63 75.4455 123.17 75.8582 123.683C77.4377 125.759 79.6028 128.617 78.0766 131.758C76.8343 134.331 68.2979 137.526 61.4121 138.786C59.8326 139.07 57.6497 139.389 55.5733 139.389Z" fill="#212529"/>
<path d="M49.7523 122.494C49.6822 122.492 49.6138 122.472 49.5545 122.434C49.4951 122.397 49.447 122.344 49.4151 122.281C49.0779 121.429 46.0964 113.993 48.4568 112.378C50.8171 110.763 62.7609 108.208 63.5595 108.527C63.6042 108.543 63.6452 108.568 63.6802 108.6C63.7152 108.632 63.7434 108.67 63.7633 108.713C63.7831 108.756 63.7942 108.803 63.7958 108.85C63.7973 108.897 63.7894 108.945 63.7725 108.989C63.7318 109.068 63.6664 109.131 63.5864 109.17C63.5063 109.208 63.4159 109.219 63.3288 109.202C62.5125 109.113 50.9769 111.491 48.865 112.964C47.4452 113.94 48.8472 119.016 50.0718 121.997C50.0922 122.039 50.1038 122.084 50.1058 122.131C50.1079 122.177 50.1004 122.223 50.0837 122.267C50.067 122.31 50.0416 122.349 50.009 122.383C49.9764 122.416 49.9374 122.442 49.8943 122.459L49.7523 122.494Z" fill="#212529"/>
<path d="M59.9563 107.942C58.714 107.942 57.4362 107.64 56.673 106.646C56.6166 106.571 56.5923 106.476 56.6056 106.383C56.6189 106.29 56.6687 106.206 56.744 106.149C56.7803 106.119 56.8226 106.096 56.8682 106.083C56.9137 106.07 56.9615 106.067 57.0083 106.074C57.0552 106.08 57.1002 106.097 57.1402 106.122C57.1803 106.147 57.2146 106.181 57.241 106.22C58.7672 108.208 63.275 106.646 63.3104 106.628C63.3547 106.611 63.4018 106.603 63.4492 106.605C63.4965 106.607 63.543 106.618 63.586 106.637C63.629 106.657 63.6676 106.686 63.6996 106.721C63.7315 106.756 63.7561 106.797 63.7719 106.841C63.8013 106.931 63.7958 107.028 63.7562 107.114C63.7167 107.199 63.6462 107.267 63.5589 107.303C63.4347 107.338 61.731 107.942 59.9563 107.942Z" fill="#212529"/>
<path d="M57.7027 114.029C57.6171 114.032 57.5331 114.004 57.4662 113.951C57.3994 113.897 57.3542 113.821 57.3391 113.737C57.3239 113.652 57.3398 113.565 57.3838 113.492C57.4278 113.418 57.497 113.363 57.5785 113.337C59.3709 112.68 63.6657 111.189 64.5708 111.668H64.6241C64.908 111.544 65.263 110.621 65.4404 109.823C65.4616 109.735 65.5157 109.658 65.5916 109.608C65.6675 109.559 65.7595 109.54 65.8486 109.556C65.9414 109.578 66.0225 109.634 66.0753 109.713C66.1281 109.792 66.1486 109.889 66.1326 109.982C66.0616 110.302 65.6712 111.97 64.9258 112.307C64.818 112.362 64.6983 112.389 64.5775 112.386C64.4566 112.383 64.3385 112.35 64.2336 112.289C63.7545 112.077 60.5245 113.017 57.8092 114.011L57.7027 114.029Z" fill="#212529"/>
<path d="M50.2134 125.83C51.2327 125.83 52.0591 125.004 52.0591 123.984C52.0591 122.965 51.2327 122.139 50.2134 122.139C49.194 122.139 48.3677 122.965 48.3677 123.984C48.3677 125.004 49.194 125.83 50.2134 125.83Z" fill="#212529"/>
<path d="M56.3008 107C57.3201 107 58.1465 106.174 58.1465 105.154C58.1465 104.135 57.3201 103.309 56.3008 103.309C55.2814 103.309 54.4551 104.135 54.4551 105.154C54.4551 106.174 55.2814 107 56.3008 107Z" fill="#212529"/>
<path d="M65.7773 110.125C66.7967 110.125 67.623 109.299 67.623 108.279C67.623 107.26 66.7967 106.434 65.7773 106.434C64.758 106.434 63.9316 107.26 63.9316 108.279C63.9316 109.299 64.758 110.125 65.7773 110.125Z" fill="#212529"/>
<path d="M62.5295 142.212L62.1568 141.786C61.8565 141.352 61.6453 140.864 61.5356 140.348C61.1274 138.378 62.1568 136 64.3042 134.456C66.4516 132.912 69.4331 132.593 71.1545 133.87C71.4536 134.096 71.7169 134.365 71.9354 134.669C72.0506 134.816 72.1461 134.977 72.2194 135.148C73.3019 137.225 72.2903 140.171 69.8058 141.999C67.3212 143.827 64.1799 143.862 62.5295 142.212Z" fill="#F8F9FA"/>
<path d="M65.7064 143.754C64.3754 143.754 63.1508 143.328 62.2812 142.459C62.1359 142.313 61.9996 142.159 61.873 141.997C61.5863 141.587 61.3704 141.131 61.2342 140.649C61.2121 140.563 61.2173 140.472 61.2491 140.39C61.2809 140.307 61.3377 140.236 61.4116 140.187C61.4822 140.133 61.5681 140.101 61.6572 140.098C61.7464 140.095 61.8343 140.12 61.9085 140.169C63.559 141.252 66.1323 140.986 68.1733 139.495C70.2142 138.004 71.208 135.821 70.7998 133.94L70.6046 133.035L71.3677 133.585C71.6948 133.83 71.9822 134.123 72.2196 134.455C72.339 134.624 72.4458 134.802 72.539 134.987C73.7103 137.241 72.61 140.382 70.0012 142.281C68.7587 143.209 67.2568 143.724 65.7064 143.754ZM62.1747 141.128C62.2635 141.27 62.3522 141.43 62.4587 141.572C62.5554 141.709 62.6622 141.84 62.7781 141.962C64.3399 143.506 67.2682 143.399 69.593 141.713C71.9179 140.01 72.9117 137.259 71.9179 135.307C71.8292 135.165 71.7582 135.023 71.6517 134.863L71.5984 134.81C71.5807 136.691 70.4626 138.714 68.5992 140.063C66.7357 141.412 64.0382 141.926 62.1747 141.128Z" fill="#212529"/>
<path d="M64.2867 141.555C63.2245 141.58 62.1835 141.256 61.3229 140.633L61.2164 140.544L61.1809 140.42C60.7373 138.272 61.9086 135.752 64.0915 134.155C66.2743 132.558 69.4688 132.185 71.3678 133.587L71.4742 133.676V133.8C71.9357 135.947 70.7644 138.467 68.5815 140.065C67.2504 141.041 65.7064 141.555 64.2867 141.555ZM61.8553 140.136C63.5058 141.271 66.0791 141.023 68.1733 139.497C70.1077 138.095 71.1548 135.93 70.8353 134.084C69.1849 132.948 66.6115 133.214 64.4996 134.74C62.3877 136.267 61.5359 138.29 61.8553 140.136Z" fill="#212529"/>
<path d="M71.297 139.23C71.229 139.229 71.1627 139.208 71.106 139.171C71.0494 139.133 71.0048 139.08 70.9776 139.017L70.2322 137.456C70.1922 137.368 70.1884 137.269 70.2217 137.179C70.255 137.089 70.3226 137.016 70.4097 136.976C70.4968 136.936 70.5962 136.933 70.686 136.966C70.7759 136.999 70.8488 137.067 70.8889 137.154L71.6165 138.716C71.6535 138.803 71.6558 138.901 71.6228 138.99C71.5898 139.079 71.5241 139.153 71.439 139.195L71.297 139.23Z" fill="#212529"/>
<path d="M69.5404 140.739C69.4772 140.736 69.416 140.716 69.363 140.682C69.3099 140.648 69.267 140.6 69.2387 140.543L68.653 139.496C68.6282 139.455 68.6122 139.409 68.606 139.361C68.5997 139.313 68.6034 139.264 68.6167 139.217C68.63 139.171 68.6527 139.127 68.6833 139.09C68.714 139.052 68.752 139.022 68.795 138.999C68.8782 138.96 68.9734 138.952 69.0619 138.978C69.1504 139.004 69.2261 139.063 69.2742 139.141L69.8598 140.206C69.9041 140.289 69.914 140.385 69.8874 140.475C69.8609 140.565 69.7999 140.64 69.7178 140.685C69.6657 140.721 69.6036 140.74 69.5404 140.739Z" fill="#212529"/>
<path d="M66.4342 142.619C66.3676 142.621 66.3018 142.604 66.2449 142.569C66.188 142.535 66.1428 142.484 66.1148 142.423L65.4581 141.163C65.4158 141.079 65.4088 140.981 65.4387 140.891C65.4687 140.801 65.5331 140.727 65.6178 140.684C65.7026 140.642 65.8006 140.635 65.8905 140.665C65.9804 140.695 66.0547 140.759 66.097 140.844L66.7359 142.104C66.7802 142.186 66.7901 142.283 66.7635 142.373C66.737 142.463 66.676 142.538 66.5939 142.583L66.4342 142.619Z" fill="#212529"/>
<path d="M63.5774 140.064C63.2934 140.064 62.7965 139.94 62.619 139.514C62.4415 139.088 62.9207 137.81 64.4647 136.284C66.0087 134.757 67.3042 134.03 68.3336 134.119C68.53 134.127 68.7227 134.175 68.8997 134.26C69.0768 134.346 69.2344 134.467 69.3629 134.615C69.4131 134.694 69.4319 134.789 69.4155 134.881C69.399 134.973 69.3486 135.056 69.2742 135.112C69.2002 135.163 69.1095 135.185 69.0206 135.171C68.9316 135.158 68.851 135.112 68.795 135.041C68.6465 134.901 68.449 134.825 68.2448 134.828C67.7834 134.793 66.7541 135.024 64.9616 136.781C63.1692 138.538 63.2402 139.176 63.2757 139.23C63.3111 139.283 63.5241 139.354 63.5774 139.354H63.5951C63.685 139.358 63.7705 139.394 63.8357 139.456C63.9009 139.518 63.9416 139.602 63.95 139.691C63.9461 139.786 63.908 139.876 63.8427 139.944C63.7774 140.013 63.6894 140.055 63.5951 140.064H63.5774Z" fill="#212529"/>
<path d="M119.977 141.058C119.983 140.791 119.971 140.524 119.942 140.259C119.87 139.51 119.627 138.787 119.232 138.147C117.794 135.698 114.422 134.189 110.695 134.598C106.667 135.024 103.525 137.561 102.94 140.543C102.842 141.064 102.824 141.596 102.887 142.122C102.907 142.387 102.954 142.649 103.029 142.903C103.898 146.116 107.767 148.263 112.133 147.784C116.499 147.305 119.817 144.394 119.977 141.058Z" fill="#F8F9FA"/>
<path d="M110.926 148.209C106.951 148.209 103.525 146.097 102.691 142.991C102.618 142.717 102.564 142.439 102.532 142.157C102.472 141.655 102.484 141.147 102.567 140.648C102.581 140.564 102.621 140.486 102.681 140.425C102.742 140.365 102.82 140.325 102.904 140.311C102.985 140.294 103.069 140.302 103.145 140.334C103.221 140.366 103.285 140.42 103.33 140.489C104.785 142.814 108.033 144.127 111.458 143.754C115.203 143.346 118.255 141.057 118.877 138.182C118.89 138.102 118.928 138.028 118.985 137.971C119.043 137.914 119.116 137.876 119.196 137.862C119.276 137.853 119.356 137.867 119.428 137.901C119.5 137.936 119.561 137.99 119.604 138.057C119.982 138.723 120.218 139.461 120.296 140.222C120.326 140.505 120.337 140.79 120.332 141.074C120.154 144.624 116.658 147.641 112.168 148.138C111.76 148.173 111.334 148.209 110.926 148.209ZM103.206 141.536C103.206 141.713 103.206 141.891 103.224 142.068C103.241 142.246 103.312 142.583 103.366 142.814C104.2 145.902 107.944 147.889 112.097 147.428C116.232 146.984 119.462 144.233 119.622 141.039C119.627 140.79 119.615 140.541 119.586 140.293C119.551 139.899 119.461 139.511 119.32 139.14C118.291 141.926 115.221 144.056 111.529 144.446C108.193 144.819 104.945 143.665 103.206 141.536Z" fill="#212529"/>
<path d="M110.306 144.518C107.005 144.518 104.023 143.081 102.639 140.72L102.568 140.614L102.603 140.472C103.225 137.26 106.543 134.686 110.661 134.243C114.423 133.834 117.99 135.325 119.552 137.969L119.605 138.076V138.218C118.984 141.448 115.665 144.003 111.548 144.447C111.136 144.498 110.721 144.522 110.306 144.518ZM103.331 140.49C104.769 142.814 108.016 144.128 111.459 143.755C115.204 143.347 118.239 141.075 118.86 138.218C117.422 135.875 114.174 134.58 110.732 134.952C106.987 135.361 103.952 137.614 103.331 140.49Z" fill="#212529"/>
<path d="M107.217 147.216C107.131 147.217 107.048 147.187 106.983 147.131C106.918 147.076 106.875 146.999 106.862 146.914L106.507 143.631C106.499 143.585 106.501 143.538 106.513 143.493C106.524 143.449 106.545 143.406 106.573 143.37C106.601 143.333 106.637 143.303 106.677 143.28C106.718 143.258 106.763 143.244 106.809 143.24C106.855 143.235 106.902 143.24 106.947 143.253C106.992 143.267 107.034 143.289 107.07 143.319C107.107 143.348 107.137 143.385 107.159 143.426C107.181 143.468 107.195 143.513 107.199 143.56L107.572 146.825C107.577 146.872 107.572 146.919 107.559 146.964C107.545 147.009 107.523 147.051 107.493 147.087C107.464 147.123 107.427 147.153 107.386 147.175C107.344 147.197 107.299 147.211 107.252 147.216H107.217Z" fill="#212529"/>
<path d="M110.855 147.855C110.767 147.855 110.682 147.823 110.616 147.764C110.55 147.705 110.509 147.623 110.5 147.535L110.092 144.217C110.086 144.121 110.115 144.027 110.174 143.952C110.233 143.877 110.318 143.826 110.411 143.809C110.458 143.804 110.505 143.808 110.55 143.822C110.595 143.835 110.637 143.857 110.673 143.887C110.71 143.917 110.74 143.953 110.762 143.995C110.784 144.036 110.798 144.081 110.802 144.128L111.21 147.464C111.215 147.511 111.211 147.558 111.197 147.603C111.184 147.648 111.162 147.69 111.132 147.726C111.102 147.763 111.066 147.793 111.024 147.815C110.983 147.837 110.937 147.85 110.891 147.855H110.855Z" fill="#212529"/>
<path d="M116.108 146.896C116.025 146.898 115.944 146.87 115.879 146.818C115.814 146.766 115.77 146.693 115.753 146.612L115.061 142.974C115.045 142.88 115.065 142.784 115.118 142.704C115.171 142.625 115.252 142.569 115.345 142.548C115.437 142.532 115.531 142.553 115.607 142.607C115.683 142.66 115.736 142.741 115.753 142.832L116.463 146.488C116.479 146.58 116.458 146.674 116.404 146.75C116.351 146.826 116.27 146.879 116.179 146.896H116.108Z" fill="#212529"/>
<path d="M106.045 139.903C105.957 139.904 105.872 139.871 105.806 139.812C105.741 139.753 105.699 139.672 105.69 139.584C105.673 139.513 105.619 138.874 106.241 138.217C107.217 137.17 109.24 136.691 112.275 136.833C115.309 136.975 116.836 137.454 117.155 138.359C117.368 138.927 116.96 139.477 116.694 139.708C116.622 139.756 116.535 139.777 116.449 139.765C116.363 139.754 116.284 139.711 116.228 139.646C116.171 139.58 116.14 139.496 116.141 139.41C116.142 139.323 116.174 139.24 116.232 139.176C116.232 139.176 116.587 138.856 116.481 138.59C116.374 138.324 115.895 137.685 112.239 137.543C108.583 137.401 107.359 138.075 106.791 138.679C106.223 139.282 106.4 139.495 106.4 139.513C106.406 139.606 106.376 139.698 106.317 139.77C106.258 139.843 106.173 139.89 106.081 139.903H106.045Z" fill="#212529"/>
<path d="M74.7933 80.7006C73.2493 80.7006 72.3974 79.6713 72.007 78.9614C71.5811 79.4583 70.7115 80.0617 69.061 79.8843C66.7539 79.6181 66.2569 77.5594 66.1682 76.5301C65.5116 76.7963 64.1983 77.2399 63.098 76.3526C62.2639 75.6782 61.9622 74.6489 62.2639 73.4953C61.341 73.6018 59.7083 73.3888 58.7144 72.3063C57.7206 71.2237 57.6674 70.1944 58.0401 68.6149C57.1527 68.7923 56.1411 68.8101 55.7152 68.2422C55.2893 67.6743 55.5022 67.1951 55.9991 66.3965L56.6025 66.7692C56.1411 67.5146 56.2476 67.763 56.2831 67.8162C56.3186 67.8695 57.0817 68.1179 58.1998 67.8517C58.2852 67.8344 58.3735 67.8383 58.4571 67.863C58.5406 67.8878 58.6168 67.9327 58.6789 67.9937C58.7371 68.061 58.7787 68.1411 58.8003 68.2274C58.8218 68.3137 58.8228 68.4039 58.8032 68.4906C58.395 69.9636 58.5547 71.0817 59.2291 71.8271C59.9035 72.5725 61.6782 72.8919 62.2994 72.7854C62.4012 72.7596 62.5081 72.7625 62.6084 72.7938C62.7087 72.8252 62.7983 72.8837 62.8673 72.9629C62.9356 73.0421 62.9829 73.1374 63.0046 73.2398C63.0263 73.3422 63.0218 73.4484 62.9915 73.5486C62.7963 74.2052 62.7253 75.128 63.5416 75.8024C64.358 76.4768 65.4051 76.1041 66.115 75.7669L66.186 75.7314C66.2565 75.6978 66.3347 75.6833 66.4126 75.6895C66.4905 75.6958 66.5654 75.7225 66.6296 75.7669C66.6954 75.8101 66.7503 75.8677 66.7903 75.9354C66.8303 76.0031 66.8543 76.079 66.8603 76.1574C66.8781 76.7963 67.0911 78.9437 69.132 79.1744C70.7292 79.3518 71.3858 78.6952 71.6343 78.287C71.6783 78.21 71.7435 78.1473 71.8222 78.1063C71.9009 78.0654 71.9897 78.0481 72.078 78.0563C72.1621 78.0572 72.244 78.0829 72.3135 78.1303C72.383 78.1777 72.4369 78.2446 72.4684 78.3225C72.7169 78.8549 73.4268 80.0795 74.953 79.9907C76.4793 79.902 76.7987 79.0324 76.9407 78.5C76.959 78.4175 77.0004 78.342 77.0601 78.2822C77.1199 78.2225 77.1954 78.1811 77.2779 78.1628C77.3633 78.1454 77.4516 78.1493 77.5352 78.1741C77.6187 78.1988 77.6949 78.2437 77.757 78.3048C78.2717 78.8904 79.656 80.1505 81.3242 79.1744C82.9924 78.1983 82.602 77.3642 82.2471 76.672C82.2051 76.5831 82.1895 76.4841 82.2021 76.3866C82.2147 76.2891 82.2549 76.1972 82.318 76.1219C82.3869 76.0544 82.4739 76.0084 82.5684 75.9895C82.663 75.9706 82.7609 75.9796 82.8505 76.0154C83.6668 76.3348 85.548 76.6365 86.0627 76.0331C86.5773 75.4297 85.8852 73.868 85.619 73.4421C85.5784 73.3696 85.5542 73.2892 85.5481 73.2064C85.5419 73.1236 85.554 73.0405 85.5835 72.9629C85.6177 72.887 85.6692 72.8201 85.734 72.7677C85.7987 72.7153 85.8748 72.6788 85.9562 72.6612C86.4709 72.5547 88.1568 72.111 88.7425 70.922C89.0619 70.2476 88.9909 69.4135 88.5295 68.4551C88.4805 68.3598 88.4595 68.2525 88.469 68.1458C88.4784 68.039 88.5178 67.937 88.5828 67.8517C88.6504 67.7647 88.7413 67.6986 88.8449 67.6609C88.9485 67.6232 89.0606 67.6156 89.1684 67.6388C89.8428 67.763 91.4578 67.976 91.6353 67.0531L92.3274 67.1951C92.1144 68.2422 91.0141 68.6681 89.2749 68.3664C89.7363 69.449 89.7718 70.4073 89.3814 71.2237C88.7425 72.5192 87.1985 73.0871 86.3644 73.3001C86.7903 74.081 87.4292 75.554 86.6128 76.4946C85.7965 77.4352 84.0218 77.098 83.0634 76.8318C83.2941 77.5771 83.3296 78.8372 81.6791 79.7955C80.0287 80.7539 78.2185 79.76 77.4908 79.0679C77.2246 79.7068 76.568 80.6119 74.9885 80.7006H74.7933Z" fill="#212529"/>
<path d="M51.083 61.9587C50.2471 61.9395 49.4271 61.7269 48.6871 61.3376L48.6162 61.3021C48.5429 61.2762 48.4796 61.2281 48.435 61.1644C48.3905 61.1008 48.367 61.0248 48.3677 60.9472C48.3677 60.853 48.4051 60.7627 48.4717 60.6962C48.5382 60.6296 48.6285 60.5922 48.7226 60.5922C48.8308 60.6008 48.9348 60.6375 49.0243 60.6987C51.3315 61.8877 53.4611 61.1246 55.1826 58.4803C55.2078 58.4402 55.2408 58.4056 55.2796 58.3785C55.3184 58.3513 55.3623 58.3323 55.4086 58.3223C55.4549 58.3124 55.5027 58.3119 55.5492 58.3207C55.5958 58.3295 55.64 58.3476 55.6795 58.3738C55.7176 58.3988 55.7502 58.4312 55.7754 58.4691C55.8006 58.507 55.8179 58.5497 55.8262 58.5945C55.8345 58.6392 55.8336 58.6852 55.8237 58.7297C55.8137 58.7741 55.7948 58.8161 55.7682 58.853C54.4549 60.9117 52.84 61.9587 51.083 61.9587Z" fill="#F8F9FA"/>
<path d="M109.329 104.658H109.276C109.183 104.64 109.101 104.589 109.045 104.513C108.989 104.437 108.964 104.343 108.974 104.25C109.027 104.001 112.719 78.3033 107.146 71.2222C107.111 71.1867 104.307 67.6018 102.851 66.5548C101.822 65.8094 101.858 64.3541 102.461 63.4313C103.064 62.5084 103.969 62.2955 104.875 62.8279C104.916 62.8499 104.952 62.8801 104.98 62.9167C105.009 62.9532 105.03 62.9953 105.041 63.0403C105.053 63.0853 105.055 63.1322 105.048 63.1781C105.041 63.224 105.024 63.2679 104.999 63.307C104.951 63.3861 104.874 63.4433 104.784 63.4665C104.695 63.4897 104.6 63.477 104.52 63.4313C103.721 62.9699 103.224 63.5378 103.047 63.804C102.621 64.4784 102.603 65.5077 103.26 65.9691C104.804 67.0872 107.59 70.6366 107.696 70.7786C113.464 78.1081 109.844 103.291 109.684 104.356C109.671 104.441 109.628 104.518 109.563 104.573C109.498 104.629 109.415 104.659 109.329 104.658Z" fill="#212529"/>
</svg>
